<?xml version="1.0" encoding="utf-8"?>
<!-- Generator: Adobe Illustrator 17.0.2, SVG Export Plug-In . SVG Version: 6.00 Build 0)  -->
<!DOCTYPE svg PUBLIC "-//W3C//DTD SVG 1.1//EN" "http://www.w3.org/Graphics/SVG/1.1/DTD/svg11.dtd">
<svg version="1.1" xmlns="http://www.w3.org/2000/svg" xmlns:xlink="http://www.w3.org/1999/xlink" x="0px" y="0px" width="50px"
	 height="500px" viewBox="0 0 50 500" enable-background="new 0 0 50 500" xml:space="preserve">
<g id="image">
	<g>
		<circle fill="#E0E0D1" cx="24.955" cy="25.045" r="24.312"/>
	</g>
	<g opacity="0.2">
		<path fill="#231F20" d="M25.082,9.849c-6.492,0-13.676,4.084-16.018,11.895c-1.183,3.946,3.941,2.37,4.289,6.957
			c0.285,3.751-0.846,5.014-1.092,7.265c-0.332,3.039,6.743,7.598,13.098,7.309c9.327-0.423,16.472-7.375,16.472-16.712
			S34.418,9.849,25.082,9.849z M19.004,37.201c-1.678,0-3.039-1.361-3.039-3.039c0-1.678,1.361-3.039,3.039-3.039
			s3.039,1.361,3.039,3.039C22.043,35.84,20.682,37.201,19.004,37.201z"/>
	</g>
	<g>
		<path fill="#E0995E" d="M25.082,8.33c-6.492,0-13.676,4.084-16.018,11.895c-1.183,3.946,3.941,2.37,4.289,6.957
			c0.285,3.751-0.846,5.014-1.092,7.265c-0.332,3.039,6.743,7.598,13.098,7.309c9.327-0.423,16.472-7.375,16.472-16.712
			S34.418,8.33,25.082,8.33z M19.004,35.681c-1.678,0-3.039-1.361-3.039-3.039c0-1.678,1.361-3.039,3.039-3.039
			s3.039,1.361,3.039,3.039C22.043,34.321,20.682,35.681,19.004,35.681z"/>
	</g>
	<g opacity="0.2">
		<circle fill="#231F20" cx="16.508" cy="19.726" r="3.039"/>
	</g>
	<g opacity="0.2">
		<circle fill="#231F20" cx="25.082" cy="15.633" r="3.039"/>
	</g>
	<g opacity="0.2">
		<circle fill="#231F20" cx="33.6" cy="19.52" r="3.039"/>
	</g>
	<g opacity="0.2">
		<circle fill="#231F20" cx="35.861" cy="29.049" r="3.039"/>
	</g>
	<g opacity="0.2">
		<circle fill="#231F20" cx="28.96" cy="36.52" r="3.039"/>
	</g>
	<g>
		<circle fill="#C75C5C" cx="16.508" cy="18.207" r="3.039"/>
	</g>
	<g>
		<circle fill="#F5CF87" cx="25.082" cy="14.114" r="3.039"/>
	</g>
	<g>
		<circle fill="#76C2AF" cx="33.6" cy="18" r="3.039"/>
	</g>
	<g>
		<circle fill="#FFFFFF" cx="35.861" cy="27.53" r="3.039"/>
	</g>
	<g>
		<circle fill="#4F5D73" cx="28.96" cy="35.001" r="3.039"/>
	</g>
</g>
<g id="standard">
	<g>
		<circle fill="#76C2AF" cx="25" cy="75.035" r="24.326"/>
	</g>
	<g>
		<g>
			<g opacity="0.2">
				<path fill="#231F20" d="M22.086,68.193v-6.842h-9.882c-1.26,0-2.281,1.021-2.281,2.281v25.846c0,1.26,1.021,2.281,2.281,2.281
					h16.724c1.26,0,2.281-1.021,2.281-2.281V70.474h-6.842C23.107,70.474,22.086,69.453,22.086,68.193z"/>
			</g>
			<g>
				<path fill="#E0E0D1" d="M28.928,59.831h-6.842h-9.882c-1.26,0-2.281,1.021-2.281,2.281v19.005v6.842
					c0,1.26,1.021,2.281,2.281,2.281h6.842h9.882c1.26,0,2.281-1.021,2.281-2.281V68.953v-6.842
					C31.208,60.852,30.187,59.831,28.928,59.831z"/>
			</g>
		</g>
		<g opacity="0.2">
			<rect x="12.964" y="65.152" fill="#231F20" width="7.602" height="1.52"/>
		</g>
		<g opacity="0.2">
			<rect x="12.964" y="77.315" fill="#231F20" width="15.204" height="1.52"/>
		</g>
		<g opacity="0.2">
			<rect x="12.964" y="73.514" fill="#231F20" width="15.204" height="1.52"/>
		</g>
		<g opacity="0.2">
			<rect x="12.964" y="69.713" fill="#231F20" width="15.204" height="1.52"/>
		</g>
		<g opacity="0.2">
			<rect x="12.964" y="81.116" fill="#231F20" width="15.204" height="1.52"/>
		</g>
		<g opacity="0.2">
			<rect x="12.964" y="84.917" fill="#231F20" width="15.204" height="1.52"/>
		</g>
	</g>
	<g opacity="0.2">
		<path fill="#231F20" d="M42.703,67.329l-5.375-5.375c-0.891-0.891-2.335-0.891-3.225,0l-2.688,2.688l-0.538,0.538L18.514,77.543
			l-1.433,7.167l-0.717,3.584l3.584-0.717l7.167-1.433L39.478,73.78l0.538-0.538l2.688-2.688
			C43.594,69.664,43.594,68.22,42.703,67.329z"/>
	</g>
	<g>
		<path fill="#C75C5C" d="M39.478,72.325c-0.891,0.891-2.335,0.891-3.225,0l-5.375-5.375c-0.891-0.891-0.891-2.335,0-3.225
			l3.225-3.225c0.891-0.891,2.335-0.891,3.225,0l5.375,5.375c0.891,0.891,0.891,2.335,0,3.225L39.478,72.325z"/>
	</g>
	<g>
		
			<rect x="24.519" y="61.59" transform="matrix(0.7071 0.7071 -0.7071 0.7071 57.6279 2.2983)" fill="#E0995E" width="3.041" height="18.244"/>
	</g>
	<g>
		
			<rect x="25.687" y="64.592" transform="matrix(0.7071 0.7071 -0.7071 0.7071 61.0757 1.4999)" fill="#F5CF87" width="6.081" height="19.765"/>
	</g>
	<g>
		
			<rect x="30.97" y="68.04" transform="matrix(0.7071 0.7071 -0.7071 0.7071 64.0782 -0.3736)" fill="#E0995E" width="3.041" height="18.244"/>
	</g>
	<g>
		<g>
			<polygon fill="#4F5D73" points="16.364,86.838 19.948,86.121 17.081,83.254 			"/>
		</g>
		<g>
			<polygon fill="#FFFFFF" points="18.514,76.087 17.081,83.254 19.948,86.121 27.115,84.688 26.04,83.613 26.04,81.463 
				21.739,81.463 21.739,77.162 19.589,77.162 			"/>
		</g>
	</g>
</g>
<g id="chat">
	<g>
		<circle fill="#77B3D4" cx="25" cy="124.971" r="24.391"/>
	</g>
	<g opacity="0.2">
		<path fill="#231F20" d="M40.244,124.971c0-7.577-6.825-13.72-15.244-13.72s-15.244,6.143-15.244,13.72
			c0,7.294,6.329,13.241,14.31,13.677c0.525,2.784,0.934,4.616,0.934,4.616s3.845-2.32,7.347-6.273
			C37.053,134.655,40.244,130.149,40.244,124.971z"/>
	</g>
	<g>
		<path fill="#FFFFFF" d="M37.958,122.531c0,11.405-12.958,19.208-12.958,19.208s-7.156-32.013,0-32.013
			S37.958,115.459,37.958,122.531z"/>
	</g>
	<g>
		<ellipse fill="#FFFFFF" cx="25" cy="123.446" rx="15.244" ry="13.72"/>
	</g>
	<g>
		<circle fill="#4F5D73" cx="25" cy="123.446" r="1.524"/>
	</g>
	<g>
		<circle fill="#4F5D73" cx="31.098" cy="123.446" r="1.524"/>
	</g>
	<g>
		<circle fill="#4F5D73" cx="18.902" cy="123.446" r="1.524"/>
	</g>
</g>
<g id="image_2">
	<circle fill="#E0E0D1" cx="25" cy="174.985" r="24.406"/>
	<g>
		<g>
			<circle fill="#76C2AF" cx="25" cy="174.985" r="11.745"/>
		</g>
		<circle fill="#4F5D73" cx="25" cy="174.985" r="6.483"/>
		<g opacity="0.2">
			<path fill="#FFFFFF" d="M33.455,164.209c-4.689-1.003-10.66-0.599-15.48,0.675c-0.385,1.162-0.602,2.402-0.602,3.693
				c0,6.487,5.258,11.745,11.745,11.745c4.166,0,7.817-2.175,9.902-5.446C38.26,170.43,37.021,164.972,33.455,164.209z"/>
		</g>
		<circle fill="#FFFFFF" cx="28.051" cy="170.409" r="1.525"/>
		<path opacity="0.2" fill="#231F20" d="M25,166.248c5.08,0,9.213,4.133,9.213,9.213c0,5.08-4.133,9.213-9.213,9.213
			c-5.08,0-9.213-4.133-9.213-9.213C15.787,170.381,19.92,166.248,25,166.248 M25,163.735c-6.476,0-11.726,5.25-11.726,11.726
			c0,6.476,5.25,11.726,11.726,11.726s11.726-5.25,11.726-11.726C36.726,168.985,31.476,163.735,25,163.735L25,163.735z"/>
		<g>
			<path fill="#4F5D73" d="M25,165.782c5.074,0,9.203,4.128,9.203,9.203c0,5.074-4.128,9.203-9.203,9.203s-9.203-4.128-9.203-9.203
				C15.797,169.91,19.926,165.782,25,165.782 M25,162.782c-6.739,0-12.203,5.463-12.203,12.203S18.261,187.187,25,187.187
				s12.203-5.463,12.203-12.203S31.739,162.782,25,162.782L25,162.782z"/>
		</g>
		<path opacity="0.2" fill="#231F20" d="M25,163.856c6.32,0,11.463,5.142,11.463,11.463c0,6.32-5.142,11.463-11.463,11.463
			s-11.463-5.142-11.463-11.463C13.537,168.998,18.68,163.856,25,163.856 M25,161.4c-7.687,0-13.919,6.232-13.919,13.919
			c0,7.687,6.232,13.919,13.919,13.919s13.919-6.232,13.919-13.919C38.919,167.632,32.687,161.4,25,161.4L25,161.4z"/>
		<g>
			<path fill="#4F5D73" d="M25,163.494c6.336,0,11.491,5.155,11.491,11.491c0,6.336-5.155,11.491-11.491,11.491
				s-11.491-5.155-11.491-11.491C13.509,168.649,18.664,163.494,25,163.494 M25,160.494c-8.003,0-14.491,6.488-14.491,14.491
				S16.997,189.475,25,189.475c8.003,0,14.491-6.488,14.491-14.491S33.003,160.494,25,160.494L25,160.494z"/>
		</g>
		<path opacity="0.2" fill="#231F20" d="M25,161.668c7.54,0,13.675,6.134,13.675,13.675c0,7.54-6.134,13.675-13.675,13.675
			s-13.675-6.134-13.675-13.675C11.325,167.802,17.46,161.668,25,161.668 M25,159.255c-8.885,0-16.088,7.203-16.088,16.088
			c0,8.885,7.203,16.088,16.088,16.088s16.088-7.203,16.088-16.088C41.088,166.457,33.885,159.255,25,159.255L25,159.255z"/>
		<g opacity="0.2">
			<circle fill="#231F20" cx="25" cy="176.51" r="16.779"/>
		</g>
		<g>
			<path fill="#4F5D73" d="M25,161.206c7.598,0,13.779,6.181,13.779,13.779S32.598,188.763,25,188.763s-13.779-6.181-13.779-13.779
				S17.402,161.206,25,161.206 M25,158.206c-9.267,0-16.779,7.512-16.779,16.779S15.733,191.763,25,191.763
				s16.779-7.512,16.779-16.779S34.267,158.206,25,158.206L25,158.206z"/>
		</g>
	</g>
</g>
<g id="quote">
	<g>
		<circle fill="#E0E0D1" cx="25" cy="225.06" r="24.426"/>
	</g>
	<g opacity="0.2">
		<g>
			<path fill="#231F20" d="M35.663,225.631c-0.165,2.689-1.397,6.716-6.329,10.634c-0.237,0.186-0.514,0.278-0.79,0.278
				c-0.386,0-0.766-0.176-1.019-0.511c-0.436-0.577-0.335-1.405,0.229-1.851c4.016-3.19,5.115-6.315,5.309-8.459
				c-0.567,0.325-1.208,0.524-1.903,0.524c-2.166,0-3.92-1.796-3.92-4.01s1.754-4.01,3.92-4.01c0.49,0,0.939,0.126,1.368,0.296
				l-0.016-0.031c0,0,0.189,0.068,0.452,0.212c0.013,0.008,0.027,0.01,0.04,0.016c0.008,0.005,0.013,0.01,0.021,0.016
				c0.181,0.102,0.389,0.239,0.62,0.433c0.098,0.084,0.181,0.181,0.271,0.273C34.883,220.386,35.943,222.192,35.663,225.631z
				 M18.256,226.247c-2.166,0-3.92-1.796-3.92-4.01s1.756-4.01,3.92-4.01c0.49,0,0.939,0.126,1.368,0.296l-0.013-0.031
				c0,0,0.189,0.068,0.452,0.212c0.013,0.008,0.027,0.01,0.04,0.016c0.008,0.005,0.013,0.01,0.021,0.016
				c0.181,0.102,0.389,0.239,0.62,0.433c0.098,0.084,0.181,0.181,0.271,0.273c0.966,0.946,2.028,2.752,1.746,6.194
				c-0.165,2.689-1.397,6.716-6.329,10.634c-0.237,0.186-0.514,0.278-0.79,0.278c-0.386,0-0.766-0.176-1.019-0.511
				c-0.436-0.577-0.335-1.405,0.229-1.851c4.016-3.19,5.115-6.315,5.309-8.459C19.592,226.045,18.95,226.247,18.256,226.247z"/>
		</g>
	</g>
	<g>
		<g>
			<path fill="#4F5D73" d="M35.663,224.105c-0.165,2.689-1.397,6.716-6.329,10.634c-0.237,0.186-0.514,0.278-0.79,0.278
				c-0.386,0-0.766-0.176-1.019-0.511c-0.436-0.577-0.335-1.405,0.229-1.851c4.016-3.19,5.115-6.315,5.309-8.459
				c-0.567,0.325-1.208,0.524-1.903,0.524c-2.166,0-3.92-1.796-3.92-4.01s1.754-4.01,3.92-4.01c0.49,0,0.939,0.126,1.368,0.296
				l-0.016-0.031c0,0,0.189,0.068,0.452,0.212c0.013,0.008,0.027,0.01,0.04,0.016c0.008,0.005,0.013,0.01,0.021,0.016
				c0.181,0.102,0.389,0.239,0.62,0.432c0.098,0.084,0.181,0.181,0.271,0.273C34.883,218.86,35.943,220.666,35.663,224.105z
				 M18.256,224.721c-2.166,0-3.92-1.796-3.92-4.01s1.756-4.01,3.92-4.01c0.49,0,0.939,0.126,1.368,0.296l-0.013-0.031
				c0,0,0.189,0.068,0.452,0.212c0.013,0.008,0.027,0.01,0.04,0.016c0.008,0.005,0.013,0.01,0.021,0.016
				c0.181,0.102,0.389,0.239,0.62,0.432c0.098,0.084,0.181,0.181,0.271,0.273c0.966,0.946,2.028,2.752,1.746,6.194
				c-0.165,2.689-1.397,6.716-6.329,10.634c-0.237,0.186-0.514,0.278-0.79,0.278c-0.386,0-0.766-0.176-1.019-0.511
				c-0.436-0.577-0.335-1.405,0.229-1.851c4.016-3.19,5.115-6.315,5.309-8.459C19.592,224.519,18.95,224.721,18.256,224.721z"/>
		</g>
	</g>
</g>
<g id="video">
	<g>
		<circle fill="#C75C5C" cx="25" cy="274.982" r="24.454"/>
	</g>
	<g>
		<g>
			<rect x="12.9" y="273.453" fill="#4F5D73" width="3.057" height="3.057"/>
		</g>
		<g>
			<rect x="12.9" y="278.803" fill="#4F5D73" width="3.057" height="3.057"/>
		</g>
		<g>
			<rect x="12.9" y="284.152" fill="#4F5D73" width="3.057" height="3.057"/>
		</g>
		<g>
			<rect x="12.9" y="268.104" fill="#4F5D73" width="3.057" height="3.057"/>
		</g>
		<g>
			<rect x="12.9" y="262.755" fill="#4F5D73" width="3.057" height="3.057"/>
		</g>
		<g>
			<rect x="34.298" y="273.453" fill="#4F5D73" width="3.057" height="3.057"/>
		</g>
		<g>
			<rect x="34.298" y="278.803" fill="#4F5D73" width="3.057" height="3.057"/>
		</g>
		<g>
			<rect x="34.298" y="284.152" fill="#4F5D73" width="3.057" height="3.057"/>
		</g>
		<g>
			<rect x="34.298" y="268.104" fill="#4F5D73" width="3.057" height="3.057"/>
		</g>
		<g>
			<rect x="34.298" y="262.755" fill="#4F5D73" width="3.057" height="3.057"/>
		</g>
		<g>
			<rect x="19.014" y="262.755" fill="#4F5D73" width="12.227" height="10.699"/>
		</g>
		<g>
			<rect x="19.014" y="276.51" fill="#4F5D73" width="12.227" height="10.699"/>
		</g>
	</g>
	<g opacity="0.2">
		<path fill="#231F20" d="M37.354,261.226H12.9c-1.688,0-3.057,1.369-3.057,3.057v24.454c0,1.688,1.369,3.057,3.057,3.057h24.454
			c1.688,0,3.057-1.369,3.057-3.057v-24.454C40.411,262.595,39.043,261.226,37.354,261.226z M15.957,288.737H12.9v-3.057h3.057
			V288.737z M15.957,283.388H12.9v-3.057h3.057V283.388z M15.957,278.038H12.9v-3.057h3.057V278.038z M15.957,272.689H12.9v-3.057
			h3.057V272.689z M15.957,267.34H12.9v-3.057h3.057V267.34z M31.241,288.737H19.014v-10.699h12.227V288.737z M31.241,274.982
			H19.014v-10.699h12.227V274.982z M37.354,288.737h-3.057v-3.057h3.057V288.737z M37.354,283.388h-3.057v-3.057h3.057V283.388z
			 M37.354,278.038h-3.057v-3.057h3.057V278.038z M37.354,272.689h-3.057v-3.057h3.057V272.689z M37.354,267.34h-3.057v-3.057h3.057
			V267.34z"/>
	</g>
	<g>
		<path fill="#E0E0D1" d="M37.354,259.698H12.9c-1.688,0-3.057,1.369-3.057,3.057v24.454c0,1.688,1.369,3.057,3.057,3.057h24.454
			c1.688,0,3.057-1.369,3.057-3.057v-24.454C40.411,261.066,39.043,259.698,37.354,259.698z M15.957,287.209H12.9v-3.057h3.057
			V287.209z M15.957,281.859H12.9v-3.057h3.057V281.859z M15.957,276.51H12.9v-3.057h3.057V276.51z M15.957,271.161H12.9v-3.057
			h3.057V271.161z M15.957,265.811H12.9v-3.057h3.057V265.811z M31.241,287.209H19.014V276.51h12.227V287.209z M31.241,273.453
			H19.014v-10.699h12.227V273.453z M37.354,287.209h-3.057v-3.057h3.057V287.209z M37.354,281.859h-3.057v-3.057h3.057V281.859z
			 M37.354,276.51h-3.057v-3.057h3.057V276.51z M37.354,271.161h-3.057v-3.057h3.057V271.161z M37.354,265.811h-3.057v-3.057h3.057
			V265.811z"/>
	</g>
</g>
<g id="link">
	<g>
		<circle fill="#77B3D4" cx="25" cy="325.014" r="24.431"/>
	</g>
	<g opacity="0.2">
		<g>
			<path fill="#231F20" d="M25,309.679c-9.276,0-16.796,7.52-16.796,16.796s7.52,16.796,16.796,16.796
				c9.276,0,16.796-7.52,16.796-16.796S34.276,309.679,25,309.679z M11.298,319.456c0.16,0.644-0.16,1.802-0.407,3.465
				c-0.288,1.939,1.258,1.52,1.205,3.354s1.362,2.594,1.179,2.777c-0.183,0.183-0.917,0.445,0.183,2.83s2.044,3.092,2.175,4.376
				c0.131,1.284,1.546,3.17,1.546,3.17l0.079,0.353c-4.576-2.673-7.659-7.634-7.659-13.305
				C9.599,323.948,10.215,321.563,11.298,319.456z M18.908,340.135c-0.079-0.341,0.079-2.175,2.28-2.908
				c2.201-0.734,1.834-1.703,2.489-2.646c0.655-0.943,0.786-1.651-0.472-1.939c-1.258-0.288-2.568-0.498-3.694-2.28
				c-1.127-1.782-2.699-1.834-3.537-2.384c-0.838-0.55-1.52-0.445-2.542-0.576c-1.022-0.131-0.681-2.987-0.629-3.616
				s-0.629,0.21-1.127-0.226c-0.498-0.436,0.472-2.472,1.441-2.394c0.969,0.079,0.734,0.55,0.917,1.624
				c0.183,1.074,0.524,0.812,0.603,0.472c0.079-0.341,0.131-1.782,0.472-2.227c0.341-0.445,0.419-1.651,1.52-1.598
				c1.1,0.052,1.074-0.996,1.887-0.655c0.812,0.341,1.389,0.079,0.865-0.367c-0.524-0.445-0.236-0.891,0.655-0.603
				c0.891,0.288,0.943-1.284,0.786-2.096c-0.157-0.812-0.812-1.048-1.625-0.55c-0.812,0.498-1.415,0.288-0.996-0.55
				c0.419-0.838,2.07-0.131,3.066,0.288c0.996,0.419,1.258-1.1,0.707-1.834c-0.55-0.734-0.576-0.393-2.149-0.288
				c-0.626,0.042-0.562-0.294-0.258-0.714c1.691-0.64,3.521-0.992,5.433-0.992c1.935,0,3.787,0.362,5.494,1.017
				c0.215,0.301,0.302,0.538,0.152,0.638c-0.629,0.419-1.179,0.045-0.996,1.215c0.183,1.17,1.048,2.559,1.729,2.1
				c0.681-0.459,1.86,0.117,0.838,0.746c-1.022,0.629-1.31,0.576-1.782,0.996c-0.472,0.419-0.262,0.21,0.21,0.734
				c0.472,0.524,0.419,0.629-0.236,0.891s-1.048,0.838-0.419,1.493c0.629,0.655,1.048,1.205,1.756,0
				c0.707-1.205,0.838-2.253,1.441-1.939c0.603,0.314,1.284,1.284,1.729,0.734c0.445-0.55,0.367-0.917,0.969-0.498
				c0.603,0.419,2.83,0.445,1.336,1.546c-1.493,1.1-1.231,1.572-1.939,1.441c-0.707-0.131-3.904-0.812-4.638,0.969
				c-0.734,1.782-3.406,3.197-2.018,4.926c1.389,1.729,1.074,2.987,3.066,3.249c1.991,0.262,3.013-0.629,3.511,0.288
				c0.498,0.917,0.105,1.022,0.131,2.411c0.013,0.688,0.38,1.986,0.747,3.122c-2.803,2.909-6.734,4.724-11.084,4.724
				c-2.19,0-4.273-0.463-6.161-1.29C18.895,340.37,18.924,340.205,18.908,340.135z"/>
		</g>
		<g>
			<path fill="#231F20" d="M25.066,314.484c0.483-0.29,0.524,0.105,0.943-1.232c0.419-1.336-1.572-1.52-2.515-1.362
				c-0.943,0.157-0.524,0.55-0.524,0.55c0.314,0.498,0.522,2.332-0.04,3.013c-0.562,0.681,0.46,0.812,0.905,0.183
				C24.28,315.008,24.544,314.798,25.066,314.484z"/>
		</g>
	</g>
	<g>
		<g>
			<path fill="#FFFFFF" d="M25,308.284c-9.276,0-16.796,7.52-16.796,16.796s7.52,16.796,16.796,16.796
				c9.276,0,16.796-7.52,16.796-16.796S34.276,308.284,25,308.284z M11.298,318.061c0.16,0.644-0.16,1.802-0.407,3.465
				c-0.288,1.939,1.258,1.52,1.205,3.354c-0.052,1.834,1.362,2.594,1.179,2.777c-0.183,0.183-0.917,0.445,0.183,2.83
				s2.044,3.092,2.175,4.376c0.131,1.284,1.546,3.17,1.546,3.17l0.079,0.353c-4.576-2.673-7.659-7.634-7.659-13.305
				C9.599,322.553,10.215,320.168,11.298,318.061z M18.908,338.74c-0.079-0.341,0.079-2.175,2.28-2.908
				c2.201-0.734,1.834-1.703,2.489-2.646c0.655-0.943,0.786-1.651-0.472-1.939c-1.258-0.288-2.568-0.498-3.694-2.28
				c-1.127-1.782-2.699-1.834-3.537-2.384c-0.838-0.55-1.52-0.445-2.542-0.576c-1.022-0.131-0.681-2.987-0.629-3.616
				c0.052-0.629-0.629,0.21-1.127-0.226c-0.498-0.436,0.472-2.473,1.441-2.394c0.969,0.079,0.734,0.55,0.917,1.624
				c0.183,1.074,0.524,0.812,0.603,0.472c0.079-0.341,0.131-1.782,0.472-2.227s0.419-1.651,1.52-1.598
				c1.1,0.052,1.074-0.996,1.887-0.655c0.812,0.341,1.389,0.079,0.865-0.367c-0.524-0.445-0.236-0.891,0.655-0.603
				c0.891,0.288,0.943-1.284,0.786-2.096c-0.157-0.812-0.812-1.048-1.625-0.55c-0.812,0.498-1.415,0.288-0.996-0.55
				c0.419-0.838,2.07-0.131,3.066,0.288c0.996,0.419,1.258-1.1,0.707-1.834c-0.55-0.734-0.576-0.393-2.149-0.288
				c-0.626,0.042-0.562-0.294-0.258-0.714c1.691-0.64,3.521-0.992,5.433-0.992c1.935,0,3.787,0.362,5.494,1.017
				c0.215,0.301,0.302,0.538,0.152,0.638c-0.629,0.419-1.179,0.045-0.996,1.215c0.183,1.17,1.048,2.559,1.729,2.1
				s1.86,0.117,0.838,0.746c-1.022,0.629-1.31,0.576-1.782,0.996c-0.472,0.419-0.262,0.21,0.21,0.734s0.419,0.629-0.236,0.891
				c-0.655,0.262-1.048,0.838-0.419,1.493c0.629,0.655,1.048,1.205,1.756,0c0.707-1.205,0.838-2.253,1.441-1.939
				c0.603,0.314,1.284,1.284,1.729,0.734c0.445-0.55,0.367-0.917,0.969-0.498c0.603,0.419,2.83,0.445,1.336,1.546
				c-1.493,1.1-1.231,1.572-1.939,1.441c-0.707-0.131-3.904-0.812-4.638,0.969c-0.734,1.782-3.406,3.197-2.018,4.926
				c1.389,1.729,1.074,2.987,3.066,3.249c1.991,0.262,3.013-0.629,3.511,0.288s0.105,1.022,0.131,2.411
				c0.013,0.688,0.38,1.986,0.747,3.122c-2.803,2.909-6.734,4.724-11.084,4.724c-2.19,0-4.273-0.463-6.161-1.29
				C18.895,338.975,18.924,338.81,18.908,338.74z"/>
		</g>
		<g>
			<path fill="#FFFFFF" d="M25.066,313.089c0.483-0.29,0.524,0.105,0.943-1.232c0.419-1.336-1.572-1.52-2.515-1.362
				c-0.943,0.157-0.524,0.55-0.524,0.55c0.314,0.498,0.522,2.332-0.04,3.013c-0.562,0.681,0.46,0.812,0.905,0.183
				C24.28,313.613,24.544,313.403,25.066,313.089z"/>
		</g>
	</g>
</g>
<g id="gallery">
	<circle fill="#4F5D73" cx="25" cy="375.023" r="24.389"/>
	<path opacity="0.2" fill="#231F20" d="M28.811,366.639v13.719H12.043v-13.719H28.811 M28.811,364.353H12.043
		c-1.263,0-2.286,1.024-2.286,2.286v13.719c0,1.263,1.024,2.286,2.286,2.286h16.767c1.263,0,2.286-1.024,2.286-2.286v-13.719
		C31.097,365.376,30.074,364.353,28.811,364.353L28.811,364.353z"/>
	<g opacity="0.2">
		<path fill="#231F20" d="M37.576,390.266H18.903c-0.632,0-1.143-0.512-1.143-1.143c0-0.632,0.512-1.143,1.143-1.143h17.53v-14.481
			c0-0.632,0.512-1.143,1.143-1.143c0.632,0,1.143,0.512,1.143,1.143v15.624C38.719,389.754,38.207,390.266,37.576,390.266z"/>
	</g>
	<g opacity="0.2">
		<path fill="#231F20" d="M33.765,386.455H15.092c-0.632,0-1.143-0.512-1.143-1.143c0-0.632,0.512-1.143,1.143-1.143h17.53v-14.481
			c0-0.632,0.512-1.143,1.143-1.143c0.632,0,1.143,0.512,1.143,1.143v15.624C34.908,385.943,34.396,386.455,33.765,386.455z"/>
	</g>
	<path fill="#FFFFFF" d="M28.811,365.115v13.719H12.043v-13.719H28.811 M28.811,362.828H12.043c-1.263,0-2.286,1.024-2.286,2.286
		v13.719c0,1.263,1.024,2.286,2.286,2.286h16.767c1.263,0,2.286-1.024,2.286-2.286v-13.719
		C31.097,363.852,30.074,362.828,28.811,362.828L28.811,362.828z"/>
	<g>
		<path fill="#E0E0D1" d="M37.576,388.742H18.903c-0.632,0-1.143-0.512-1.143-1.143c0-0.632,0.512-1.143,1.143-1.143h17.53v-14.481
			c0-0.632,0.512-1.143,1.143-1.143c0.632,0,1.143,0.512,1.143,1.143v15.624C38.719,388.23,38.207,388.742,37.576,388.742z"/>
	</g>
	<g>
		<path fill="#E0E0D1" d="M33.765,384.931H15.092c-0.632,0-1.143-0.512-1.143-1.143s0.512-1.143,1.143-1.143h17.53v-14.481
			c0-0.632,0.512-1.143,1.143-1.143c0.632,0,1.143,0.512,1.143,1.143v15.624C34.908,384.419,34.396,384.931,33.765,384.931z"/>
	</g>
</g>
<g id="audio">
	<g>
		<circle fill="#C65B5B" cx="25" cy="424.962" r="24.382"/>
	</g>
	<g opacity="0.2">
		<g>
			<path fill="#231F20" d="M11.172,438.235c1.216,1.578,3.727,1.681,5.609,0.231c0.766-0.59,2.123-2.194,2.123-5.48v-10.162
				l14.477-2.765v6.414c0,2.263-1.833,2.783-2.445,2.898c-0.054,0.007-0.106,0.02-0.159,0.029c-0.028,0.003-0.068,0.008-0.068,0.008
				l0.01,0.003c-0.725,0.132-1.455,0.436-2.11,0.94c-1.882,1.45-2.424,3.904-1.208,5.483c1.216,1.578,3.727,1.682,5.609,0.232
				c0.953-0.735,1.895-2.152,1.895-4.366v-17.014c0-0.897-0.728-1.404-1.625-1.13l-14.629,2.765c-0.897,0.273-1.27,1.224-1.27,2.121
				v9.9c0,2.266-2.091,3.315-2.703,3.429c-0.031,0.005-0.062,0.015-0.094,0.02c-0.08,0.013-0.132,0.018-0.132,0.018l0.018,0.008
				c-0.718,0.135-1.442,0.436-2.09,0.935C10.497,434.202,9.958,436.657,11.172,438.235z"/>
		</g>
	</g>
	<g>
		<g>
			<path fill="#FFFFFF" d="M11.172,436.711c1.216,1.578,3.727,1.681,5.609,0.231c0.766-0.59,2.123-2.194,2.123-5.48V421.3
				l14.477-2.765v6.414c0,2.263-1.833,2.783-2.445,2.898c-0.054,0.007-0.106,0.02-0.159,0.029c-0.028,0.003-0.068,0.008-0.068,0.008
				l0.01,0.003c-0.725,0.132-1.455,0.436-2.11,0.94c-1.882,1.45-2.424,3.904-1.208,5.483c1.216,1.578,3.727,1.682,5.609,0.232
				c0.953-0.735,1.895-2.152,1.895-4.366v-17.014c0-0.897-0.728-1.404-1.625-1.13l-14.629,2.765c-0.897,0.273-1.27,1.224-1.27,2.121
				v9.9c0,2.266-2.091,3.315-2.703,3.429c-0.031,0.005-0.062,0.015-0.094,0.02c-0.08,0.013-0.132,0.018-0.132,0.018l0.018,0.008
				c-0.718,0.135-1.442,0.436-2.09,0.935C10.497,432.678,9.958,435.133,11.172,436.711z"/>
		</g>
	</g>
</g>
<g id="standard-nopic">
	<circle fill="#76C2AF" cx="25" cy="475.12" r="24.373"/>
	<path opacity="0.2" fill="#231F20" d="M35.124,489.963l3.958-3.958c0.656-0.656,0.464-1.911-0.428-2.803l-2.693-2.693l-0.539-0.539
		l-14.364-14.364l-6.419-2.198l-3.21-1.099l1.099,3.21l2.198,6.419l14.364,14.364l0.539,0.539l2.693,2.693
		C33.214,490.427,34.469,490.619,35.124,489.963z"/>
	<path fill="#C75C5C" d="M29.09,484.503c-0.892-0.892-1.084-2.147-0.428-2.803l3.958-3.958c0.656-0.656,1.911-0.464,2.803,0.428
		l3.231,3.231c0.892,0.892,1.084,2.147,0.428,2.803l-3.958,3.958c-0.656,0.656-1.911,0.464-2.803-0.428L29.09,484.503z"/>
	
		<rect x="26.598" y="461.512" transform="matrix(-0.7071 0.7071 -0.7071 -0.7071 381.1055 786.2405)" fill="#E0995E" width="2.239" height="21.076"/>
	
		<rect x="22.566" y="462.586" transform="matrix(-0.7071 0.7071 -0.7071 -0.7071 377.4278 791.4378)" fill="#E0995E" width="4.477" height="22.599"/>
	
		<rect x="21.849" y="466.261" transform="matrix(-0.7071 0.7071 -0.7071 -0.7071 376.3651 797.6964)" fill="#E0995E" width="2.239" height="21.076"/>
	<g>
		<polygon fill="#4F5D73" points="11.429,460.51 12.528,463.719 14.638,461.609 		"/>
		<polygon fill="#F5CF87" points="21.058,463.807 14.638,461.609 12.528,463.719 14.726,470.139 15.517,469.347 17.386,469.633 
			16.814,465.895 20.552,466.467 20.266,464.598 		"/>
	</g>
	<path opacity="0.2" fill="#231F20" d="M38.607,463.036c-1.472-1.472-9.932,4.601-15.137,9.806
		c-2.561,2.561-3.853,4.432-4.333,5.851c-1.606-0.156-3.354,0.435-4.504,1.586c-0.737,0.737-1.141,1.555-1.442,2.439
		c-0.58,1.699-1.138,3.827-3.423,5.343c1.703,1.703,8.366,2.182,11.598-1.05c0.342-0.342,0.633-0.737,0.871-1.164
		c0.564-1.012,0.813-2.208,0.704-3.336c1.419-0.478,3.294-1.77,5.861-4.337C34.007,472.968,40.079,464.508,38.607,463.036z"/>
	<path fill="#F5CF87" d="M23.47,471.318c-5.205,5.205-5.185,7.572-3.713,9.044c1.472,1.472,3.839,1.493,9.044-3.713
		c5.205-5.205,11.278-13.665,9.806-15.137C37.135,460.04,28.675,466.113,23.47,471.318z"/>
	<g>
		<path fill="#C75C5C" d="M9.767,486.537c1.703,1.703,8.366,2.182,11.598-1.05c0.342-0.342,0.633-0.737,0.871-1.164
			c-5.055-0.151-7.727-1.834-9.046-3.129C12.61,482.893,12.052,485.021,9.767,486.537z"/>
		<path fill="#4F5D73" d="M21.769,478.351c-1.859-1.859-5.277-1.455-7.136,0.404c-0.737,0.737-1.141,1.555-1.442,2.439
			c1.319,1.295,3.908,5.287,9.046,3.129C23.295,482.423,23.286,479.868,21.769,478.351z"/>
	</g>
	<path fill="#C75C5C" d="M13.19,481.194c0,0,3.063-0.582,4.523,1.568c1.46,2.15,4.523,1.561,4.523,1.561l-3.964,2.19l-3.967-2.888
		L13.19,481.194z"/>
</g>
</svg>
